<svg width="26" height="26" viewBox="0 0 26 26" fill="none" xmlns="http://www.w3.org/2000/svg">
<path d="M25.7579 24.1409L19.1649 17.6549C20.9538 15.7289 21.9493 13.1984 21.9519 10.5699C21.929 7.74411 20.7846 5.04318 18.7706 3.06102C16.7565 1.07885 14.0377 -0.022248 11.2119 -0.000146046C8.38595 -0.0227803 5.66669 1.07812 3.65237 3.06037C1.63806 5.04262 0.493665 7.74385 0.470947 10.5699C0.493665 13.3959 1.63806 16.0971 3.65237 18.0793C5.66669 20.0616 8.38595 21.1625 11.2119 21.1399C13.6684 21.145 16.0533 20.3125 17.9729 18.7799L24.5899 25.2919C24.746 25.4445 24.9556 25.5301 25.1739 25.5301C25.3923 25.5301 25.6019 25.4445 25.7579 25.2919C25.8352 25.2172 25.8967 25.1278 25.9386 25.029C25.9806 24.9301 26.0022 24.8238 26.0022 24.7164C26.0022 24.6089 25.9806 24.5026 25.9386 24.4037C25.8967 24.3049 25.8352 24.2155 25.7579 24.1409ZM11.2119 19.5139C8.82081 19.5328 6.52008 18.6011 4.81579 16.9238C3.1115 15.2465 2.14323 12.961 2.12395 10.5699C2.14323 8.17872 3.1115 5.89316 4.81579 4.21588C6.52008 2.53859 8.82081 1.60695 11.2119 1.62585C13.6031 1.60695 15.9038 2.53859 17.6081 4.21588C19.3124 5.89316 20.2807 8.17872 20.2999 10.5699C20.2807 12.961 19.3124 15.2465 17.6081 16.9238C15.9038 18.6011 13.6031 19.5328 11.2119 19.5139Z" fill="black"/>
</svg>
