<svg width="21" height="26" viewBox="0 0 21 26" fill="none" xmlns="http://www.w3.org/2000/svg">
<path fill-rule="evenodd" clip-rule="evenodd" d="M15.666 6.82818C15.67 6.94763 15.6499 7.06667 15.607 7.17821C15.564 7.28974 15.4991 7.3915 15.416 7.47741C15.3329 7.56333 15.2334 7.63165 15.1234 7.67832C15.0133 7.72498 14.895 7.74902 14.7755 7.74902C14.656 7.74902 14.5377 7.72498 14.4277 7.67832C14.3176 7.63165 14.2181 7.56333 14.135 7.47741C14.0519 7.3915 13.987 7.28974 13.944 7.17821C13.9011 7.06667 13.881 6.94763 13.885 6.82818V5.05018C13.885 4.18411 13.541 3.35352 12.9286 2.74112C12.3162 2.12872 11.4856 1.78468 10.6195 1.78468C9.75345 1.78468 8.92285 2.12872 8.31045 2.74112C7.69805 3.35352 7.35401 4.18411 7.35401 5.05018V6.82818C7.35801 6.94763 7.33794 7.06667 7.29499 7.17821C7.25204 7.28974 7.18709 7.3915 7.10401 7.47741C7.02092 7.56333 6.9214 7.63165 6.81136 7.67832C6.70133 7.72498 6.58303 7.74902 6.46351 7.74902C6.34399 7.74902 6.22569 7.72498 6.11566 7.67832C6.00562 7.63165 5.9061 7.56333 5.82301 7.47741C5.73993 7.3915 5.67498 7.28974 5.63203 7.17821C5.58908 7.06667 5.56901 6.94763 5.57301 6.82818V5.05018C5.59168 3.72407 6.13157 2.45859 7.07595 1.52742C8.02032 0.59625 9.29327 0.0742188 10.6195 0.0742188C11.9458 0.0742187 13.2187 0.59625 14.1631 1.52742C15.1074 2.45859 15.6473 3.72407 15.666 5.05018V6.82818Z" fill="black"/>
<path fill-rule="evenodd" clip-rule="evenodd" d="M19.3381 8.43102L20.2881 22.68C20.3125 23.0451 20.2616 23.4113 20.1387 23.7559C20.0158 24.1005 19.8233 24.4162 19.5734 24.6834C19.3234 24.9506 19.0213 25.1636 18.6856 25.3092C18.35 25.4549 17.988 25.53 17.6221 25.53H3.62213C3.25625 25.53 2.89427 25.4549 2.55862 25.3092C2.22297 25.1636 1.92081 24.9506 1.67087 24.6834C1.42092 24.4162 1.22851 24.1005 1.10556 23.7559C0.982619 23.4113 0.931757 23.0451 0.956131 22.68L1.90613 8.43102C1.95124 7.75538 2.25119 7.12206 2.74534 6.65909C3.23949 6.19613 3.89099 5.93804 4.56813 5.93701H16.6681C17.3467 5.93602 18.0001 6.19319 18.496 6.65636C18.9919 7.11953 19.2929 7.754 19.3381 8.43102ZM13.5721 11.195C13.3068 11.7526 12.8888 12.2236 12.3667 12.5534C11.8446 12.8831 11.2397 13.0582 10.6221 13.0582C10.0046 13.0582 9.3997 12.8831 8.87758 12.5534C8.35546 12.2236 7.93749 11.7526 7.67213 11.195C7.56764 10.9867 7.38569 10.8276 7.16529 10.7519C6.9449 10.6761 6.7036 10.6898 6.49313 10.7898C6.28266 10.8899 6.11977 11.0685 6.03939 11.2872C5.95901 11.5059 5.96753 11.7475 6.06313 11.96C6.4728 12.8228 7.1188 13.5517 7.92613 14.0621C8.73346 14.5725 9.669 14.8434 10.6241 14.8434C11.5793 14.8434 12.5148 14.5725 13.3221 14.0621C14.1295 13.5517 14.7755 12.8228 15.1851 11.96C15.2807 11.7475 15.2893 11.5059 15.2089 11.2872C15.1285 11.0685 14.9656 10.8899 14.7551 10.7898C14.5447 10.6898 14.3034 10.6761 14.083 10.7519C13.8626 10.8276 13.6806 10.9867 13.5761 11.195H13.5721Z" fill="black"/>
</svg>
