<svg width="57" height="33" viewBox="0 0 57 33" fill="none" xmlns="http://www.w3.org/2000/svg">
<path d="M15.3221 28.2862H10.6081C10.4505 28.2908 10.2935 28.2637 10.1465 28.2066C9.99949 28.1494 9.86546 28.0633 9.75232 27.9534C9.63919 27.8436 9.54925 27.7121 9.48784 27.5668C9.42642 27.4215 9.39478 27.2654 9.39478 27.1077C9.39478 26.95 9.42642 26.7939 9.48784 26.6486C9.54925 26.5033 9.63919 26.3719 9.75232 26.262C9.86546 26.1521 9.99949 26.066 10.1465 26.0089C10.2935 25.9517 10.4505 25.9246 10.6081 25.9292H15.3221C15.6287 25.9381 15.9198 26.0662 16.1335 26.2863C16.3472 26.5063 16.4668 26.801 16.4668 27.1077C16.4668 27.4145 16.3472 27.7091 16.1335 27.9292C15.9198 28.1492 15.6287 28.2773 15.3221 28.2862Z" fill="black"/>
<path d="M53.6211 28.2848H50.6791C50.5214 28.2894 50.3645 28.2623 50.2175 28.2052C50.0705 28.148 49.9364 28.0619 49.8233 27.952C49.7102 27.8421 49.6202 27.7107 49.5588 27.5654C49.4974 27.4201 49.4658 27.264 49.4658 27.1063C49.4658 26.9486 49.4974 26.7925 49.5588 26.6472C49.6202 26.5019 49.7102 26.3705 49.8233 26.2606C49.9364 26.1507 50.0705 26.0646 50.2175 26.0075C50.3645 25.9503 50.5214 25.9232 50.6791 25.9278H52.6471L54.2361 17.4608C54.1797 15.3069 53.2827 13.2605 51.7371 11.7593C50.1914 10.2581 48.1198 9.42132 45.9651 9.4278H38.2261L34.4761 25.9278H41.2501C41.4077 25.9232 41.5647 25.9503 41.7117 26.0075C41.8587 26.0646 41.9927 26.1507 42.1059 26.2606C42.219 26.3705 42.309 26.5019 42.3704 26.6472C42.4318 26.7925 42.4634 26.9486 42.4634 27.1063C42.4634 27.264 42.4318 27.4201 42.3704 27.5654C42.309 27.7107 42.219 27.8421 42.1059 27.952C41.9927 28.0619 41.8587 28.148 41.7117 28.2052C41.5647 28.2623 41.4077 28.2894 41.2501 28.2848H33.0001C32.8232 28.285 32.6486 28.2453 32.4891 28.1687C32.3297 28.0922 32.1895 27.9807 32.0791 27.8425C31.9686 27.7044 31.8906 27.5432 31.851 27.3708C31.8114 27.1984 31.8111 27.0193 31.8501 26.8468L36.1351 7.9898C36.194 7.72862 36.34 7.49529 36.5493 7.32824C36.7585 7.16118 37.0184 7.07039 37.2861 7.0708H45.9651C48.7772 7.07424 51.4731 8.19287 53.4616 10.1813C55.45 12.1698 56.5687 14.8657 56.5721 17.6778L54.7831 27.3228C54.7331 27.594 54.5893 27.839 54.3769 28.0149C54.1644 28.1908 53.8969 28.2863 53.6211 28.2848Z" fill="black"/>
<path d="M45.964 32.9999C44.7985 32.9999 43.6592 32.6543 42.6901 32.0067C41.721 31.3592 40.9657 30.4388 40.5196 29.362C40.0736 28.2852 39.9569 27.1003 40.1843 25.9572C40.4117 24.8141 40.9729 23.764 41.7971 22.9399C42.6212 22.1157 43.6713 21.5545 44.8144 21.3271C45.9575 21.0997 47.1424 21.2164 48.2192 21.6624C49.296 22.1085 50.2164 22.8638 50.8639 23.8329C51.5114 24.802 51.857 25.9413 51.857 27.1069C51.8552 28.6692 51.2337 30.1671 50.129 31.2718C49.0242 32.3766 47.5264 32.998 45.964 32.9999ZM45.964 23.5709C45.2647 23.5709 44.581 23.7783 43.9996 24.1668C43.4181 24.5553 42.9648 25.1076 42.6972 25.7537C42.4296 26.3998 42.3596 27.1108 42.496 27.7967C42.6324 28.4826 42.9692 29.1127 43.4637 29.6072C43.9582 30.1017 44.5883 30.4385 45.2742 30.5749C45.9601 30.7114 46.6711 30.6413 47.3172 30.3737C47.9633 30.1061 48.5156 29.6529 48.9041 29.0714C49.2927 28.4899 49.5 27.8062 49.5 27.1069C49.499 26.1694 49.1261 25.2706 48.4632 24.6077C47.8003 23.9448 46.9015 23.5719 45.964 23.5709Z" fill="black"/>
<path d="M20.0361 32.9999C18.8705 32.9999 17.7312 32.6543 16.7621 32.0067C15.793 31.3592 15.0377 30.4388 14.5916 29.362C14.1456 28.2852 14.0289 27.1003 14.2563 25.9572C14.4837 24.8141 15.0449 23.764 15.8691 22.9399C16.6932 22.1157 17.7433 21.5545 18.8864 21.3271C20.0295 21.0997 21.2144 21.2164 22.2912 21.6624C23.368 22.1085 24.2884 22.8638 24.9359 23.8329C25.5835 24.802 25.9291 25.9413 25.9291 27.1069C25.9272 28.6692 25.3058 30.1671 24.201 31.2718C23.0963 32.3766 21.5984 32.998 20.0361 32.9999ZM20.0361 23.5709C19.3367 23.5709 18.6531 23.7783 18.0716 24.1668C17.4901 24.5553 17.0369 25.1076 16.7692 25.7537C16.5016 26.3998 16.4316 27.1108 16.568 27.7967C16.7044 28.4826 17.0412 29.1127 17.5357 29.6072C18.0303 30.1017 18.6603 30.4385 19.3462 30.5749C20.0321 30.7114 20.7431 30.6413 21.3892 30.3737C22.0354 30.1061 22.5876 29.6529 22.9761 29.0714C23.3647 28.4899 23.5721 27.8062 23.5721 27.1069C23.571 26.1694 23.1981 25.2706 22.5352 24.6077C21.8723 23.9448 20.9735 23.5719 20.0361 23.5709Z" fill="black"/>
<path d="M15.3212 7.07087H5.8932C5.58659 7.06193 5.29552 6.93385 5.0818 6.71382C4.86808 6.49378 4.74854 6.19911 4.74854 5.89237C4.74854 5.58562 4.86808 5.29095 5.0818 5.07092C5.29552 4.85088 5.58659 4.7228 5.8932 4.71387H15.3222C15.6288 4.7228 15.9199 4.85088 16.1336 5.07092C16.3473 5.29095 16.4669 5.58562 16.4669 5.89237C16.4669 6.19911 16.3473 6.49378 16.1336 6.71382C15.9199 6.93385 15.6278 7.06193 15.3212 7.07087Z" fill="black"/>
<path d="M15.321 14.1431H3.53602C3.22941 14.1342 2.93835 14.0061 2.72463 13.7861C2.51091 13.566 2.39136 13.2714 2.39136 12.9646C2.39136 12.6579 2.51091 12.3632 2.72463 12.1432C2.93835 11.9231 3.22941 11.7951 3.53602 11.7861H15.321C15.6276 11.7951 15.9187 11.9231 16.1324 12.1432C16.3461 12.3632 16.4657 12.6579 16.4657 12.9646C16.4657 13.2714 16.3461 13.566 16.1324 13.7861C15.9187 14.0061 15.6276 14.1342 15.321 14.1431Z" fill="black"/>
<path d="M15.3211 21.2139H1.17909C0.872476 21.205 0.581414 21.0769 0.367694 20.8569C0.153973 20.6368 0.0344238 20.3422 0.0344238 20.0354C0.0344238 19.7287 0.153973 19.434 0.367694 19.214C0.581414 18.9939 0.872476 18.8659 1.17909 18.8569H15.3211C15.6277 18.8659 15.9188 18.9939 16.1325 19.214C16.3462 19.434 16.4658 19.7287 16.4658 20.0354C16.4658 20.3422 16.3462 20.6368 16.1325 20.8569C15.9188 21.0769 15.6277 21.205 15.3211 21.2139Z" fill="black"/>
<path d="M33 28.286H24.75C24.4434 28.2771 24.1524 28.149 23.9387 27.929C23.7249 27.7089 23.6054 27.4142 23.6054 27.1075C23.6054 26.8008 23.7249 26.5061 23.9387 26.286C24.1524 26.066 24.4434 25.9379 24.75 25.929H32.06L37.415 2.357H10.608C10.3014 2.34807 10.0104 2.21999 9.79665 1.99995C9.58293 1.77991 9.46338 1.48525 9.46338 1.1785C9.46338 0.871756 9.58293 0.577087 9.79665 0.35705C10.0104 0.137013 10.3014 0.008933 10.608 4.6894e-07H38.893C39.0699 -0.000157341 39.2446 0.0395172 39.404 0.11608C39.5635 0.192643 39.7036 0.30413 39.8141 0.442266C39.9246 0.580401 40.0025 0.74164 40.0421 0.914018C40.0818 1.0864 40.0821 1.26549 40.043 1.438L34.151 27.366C34.0921 27.6269 33.9461 27.86 33.7371 28.027C33.5281 28.194 33.2686 28.285 33.001 28.285L33 28.286Z" fill="black"/>
</svg>
