<svg width="32" height="35" viewBox="0 0 32 35" fill="none" xmlns="http://www.w3.org/2000/svg">
<path d="M14.0719 33.9996C11.9041 34.0057 9.75661 33.5816 7.75378 32.752C5.75095 31.9224 3.93258 30.7038 2.40394 29.1666C2.27505 29.0377 2.20264 28.8629 2.20264 28.6806C2.20264 28.4984 2.27505 28.3235 2.40394 28.1946C2.53284 28.0657 2.70766 27.9933 2.88994 27.9933C3.07223 27.9933 3.24705 28.0657 3.37594 28.1946C6.2131 31.0313 10.0609 32.6246 14.0729 32.6243C18.0848 32.6239 21.9323 31.0298 24.7689 28.1926C27.6056 25.3555 29.199 21.5077 29.1986 17.4957C29.1982 13.4838 27.6041 9.63626 24.7669 6.79964C21.9305 3.96345 18.0836 2.37012 14.0724 2.37012C10.0613 2.37012 6.21439 3.96345 3.37794 6.79964C3.24905 6.92853 3.07423 7.00095 2.89194 7.00095C2.70966 7.00095 2.53484 6.92853 2.40594 6.79964C2.27705 6.67074 2.20464 6.49592 2.20464 6.31364C2.20464 6.13135 2.27705 5.95653 2.40594 5.82764C5.50089 2.73349 9.69822 0.995531 14.0746 0.996094C18.4509 0.996656 22.6478 2.73569 25.7419 5.83064C28.8361 8.92558 30.5741 13.1229 30.5735 17.4993C30.5729 21.8756 28.8339 26.0725 25.7389 29.1666C24.2105 30.7037 22.3923 31.9223 20.3896 32.7519C18.3869 33.5815 16.2396 34.0056 14.0719 33.9996Z" fill="black"/>
<path d="M14.0721 34.7498C11.806 34.7563 9.56111 34.3133 7.46734 33.4464C5.37358 32.5796 3.47249 31.3062 1.8741 29.6998C1.60451 29.4302 1.45305 29.0646 1.45305 28.6833C1.45305 28.3021 1.60451 27.9364 1.8741 27.6668C2.14369 27.3972 2.50934 27.2458 2.8906 27.2458C3.27186 27.2458 3.63751 27.3972 3.9071 27.6668C5.23785 29.0204 6.82348 30.097 8.57249 30.8346C10.3215 31.5721 12.1993 31.956 14.0974 31.9641C15.9955 31.9721 17.8765 31.6042 19.6317 30.8816C21.3869 30.1589 22.9816 29.0958 24.3239 27.7536C25.6661 26.4114 26.7292 24.8166 27.4518 23.0614C28.1745 21.3062 28.5424 19.4253 28.5344 17.5271C28.5263 15.629 28.1424 13.7512 27.4048 12.0022C26.6673 10.2532 25.5907 8.66757 24.2371 7.33682C21.5413 4.64108 17.885 3.12664 14.0726 3.12664C10.2602 3.12664 6.60392 4.64108 3.9081 7.33682C3.63798 7.60641 3.27182 7.75766 2.89019 7.75728C2.50855 7.75691 2.14269 7.60494 1.8731 7.33482C1.60351 7.0647 1.45226 6.69854 1.45264 6.31691C1.45301 5.93527 1.60498 5.56941 1.8751 5.29982C5.11074 2.06497 9.4989 0.247973 14.0742 0.248535C18.6495 0.249098 23.0373 2.06718 26.2721 5.30282C29.5069 8.53846 31.3239 12.9266 31.3234 17.5019C31.3228 22.0773 29.5047 26.465 26.2691 29.6998C24.6709 31.3062 22.77 32.5797 20.6764 33.4465C18.5828 34.3133 16.3381 34.7563 14.0721 34.7498Z" fill="black"/>
<path d="M7.88502 7.87499H2.38502C2.20273 7.87499 2.02788 7.80264 1.89889 7.67383C1.76989 7.54502 1.69729 7.37028 1.69702 7.18799V1.68799C1.69702 1.50565 1.76945 1.33078 1.89839 1.20185C2.02732 1.07292 2.20219 1.00049 2.38452 1.00049C2.56686 1.00049 2.74173 1.07292 2.87066 1.20185C2.99959 1.33078 3.07202 1.50565 3.07202 1.68799V6.49999H7.88502C8.06282 6.50677 8.23108 6.58217 8.35447 6.71036C8.47786 6.83855 8.5468 7.00956 8.5468 7.18749C8.5468 7.36542 8.47786 7.53643 8.35447 7.66462C8.23108 7.79281 8.06282 7.86821 7.88502 7.87499Z" fill="black"/>
<path d="M7.88502 8.62499H2.38502C2.00389 8.62472 1.63844 8.47327 1.36885 8.20387C1.09926 7.93446 0.947551 7.56912 0.947021 7.18799V1.68799C0.947021 1.30674 1.09847 0.941106 1.36806 0.671522C1.63764 0.401939 2.00327 0.250488 2.38452 0.250488C2.76577 0.250488 3.1314 0.401939 3.40099 0.671522C3.67057 0.941106 3.82202 1.30674 3.82202 1.68799V5.74999H7.88502C8.25971 5.75987 8.61573 5.91566 8.87724 6.18416C9.13876 6.45267 9.2851 6.81267 9.2851 7.18749C9.2851 7.5623 9.13876 7.92231 8.87724 8.19081C8.61573 8.45932 8.25971 8.61511 7.88502 8.62499Z" fill="black"/>
</svg>
