<svg width="33" height="35" viewBox="0 0 33 35" fill="none" xmlns="http://www.w3.org/2000/svg">
<path d="M16.1 1L1 5.823V14.263C1.01442 18.733 2.48374 23.0768 5.18583 26.6377C7.88792 30.1985 11.6759 32.7829 15.977 34H16.1L16.29 33.937C20.5919 32.7206 24.3807 30.1366 27.0836 26.5756C29.7864 23.0147 31.2563 18.6705 31.271 14.2V5.823L16.1 1ZM29.938 14.263C29.9155 18.4179 28.5584 22.4557 26.0669 25.7808C23.5754 29.1059 20.0814 31.5424 16.1 32.731C12.1039 31.5686 8.59391 29.1388 6.09918 25.8077C3.60445 22.4765 2.26017 18.4247 2.269 14.263V6.775L16.1 2.333L29.935 6.775L29.938 14.263Z" fill="#231F20"/>
<path d="M16.1 0.212891L32.018 5.27489V14.1999C32.0037 18.83 30.4834 23.3297 27.6865 27.0196C24.8896 30.7094 20.968 33.3891 16.514 34.6539L16.225 34.7539H15.873L15.773 34.7259C11.3139 33.4643 7.38696 30.7848 4.58623 27.0928C1.78549 23.4007 0.263327 18.897 0.25 14.2629V5.27489L16.1 0.212891ZM29.185 7.32189L16.1 3.11989L3.015 7.31989V14.2619C3.01196 17.2415 3.72864 20.1777 5.10408 22.8208C6.47952 25.4639 8.47302 27.7357 10.915 29.4429C12.4988 30.5464 14.2484 31.3904 16.098 31.9429C19.8721 30.7637 23.1739 28.4158 25.5267 25.238C27.8795 22.0601 29.1617 18.2168 29.188 14.2629L29.185 7.32189Z" fill="#231F21"/>
<path d="M8.48808 16.422L7.66309 17.374L13.8191 22.768L26.4481 11.662L25.6231 10.71L13.8231 21.118L8.48808 16.422Z" fill="#231F20"/>
<path d="M25.6939 9.64697L27.5019 11.733L13.8199 23.766L6.60791 17.446L8.41691 15.359L13.8169 20.118L25.6939 9.64697Z" fill="#231F21"/>
</svg>
